<?xml version="1.0" encoding="UTF-8"?>
<svg xmlns="http://www.w3.org/2000/svg" xmlns:xlink="http://www.w3.org/1999/xlink" width="10pt" height="14pt" viewBox="0 0 10 14" version="1.1">
<g id="surface1">
<path style=" stroke:none;fill-rule:nonzero;fill:rgb(32.54902%,50.980392%,63.137255%);fill-opacity:1;" d="M 3.222656 10.824219 C 3.222656 10.824219 2.707031 11.132812 3.589844 11.238281 C 4.660156 11.363281 5.207031 11.347656 6.382812 11.117188 C 6.382812 11.117188 6.695312 11.316406 7.125 11.492188 C 4.484375 12.664062 1.148438 11.421875 3.222656 10.824219 M 2.902344 9.292969 C 2.902344 9.292969 2.324219 9.734375 3.207031 9.832031 C 4.347656 9.953125 5.25 9.960938 6.808594 9.652344 C 6.808594 9.652344 7.027344 9.878906 7.367188 10 C 4.171875 10.96875 0.617188 10.078125 2.902344 9.292969 "/>
<path style=" stroke:none;fill-rule:nonzero;fill:rgb(90.588235%,43.529412%,0%);fill-opacity:1;" d="M 5.621094 6.695312 C 6.273438 7.472656 5.449219 8.171875 5.449219 8.171875 C 5.449219 8.171875 7.101562 7.289062 6.34375 6.179688 C 5.636719 5.148438 5.09375 4.636719 8.035156 2.871094 C 8.035156 2.871094 3.417969 4.0625 5.621094 6.695312 "/>
<path style=" stroke:none;fill-rule:nonzero;fill:rgb(32.54902%,50.980392%,63.137255%);fill-opacity:1;" d="M 9.113281 11.953125 C 9.113281 11.953125 9.496094 12.28125 8.695312 12.53125 C 7.171875 13.011719 2.351562 13.15625 1.011719 12.550781 C 0.53125 12.335938 1.433594 12.03125 1.714844 11.96875 C 2.011719 11.902344 2.183594 11.914062 2.183594 11.914062 C 1.648438 11.523438 -1.277344 12.683594 0.695312 13.015625 C 6.082031 13.917969 10.511719 12.605469 9.113281 11.953125 M 3.472656 7.707031 C 3.472656 7.707031 1.019531 8.3125 2.605469 8.53125 C 3.273438 8.621094 4.605469 8.601562 5.847656 8.492188 C 6.863281 8.40625 7.878906 8.214844 7.878906 8.214844 C 7.878906 8.214844 7.523438 8.375 7.261719 8.558594 C 4.773438 9.238281 -0.0351562 8.921875 1.347656 8.226562 C 2.519531 7.640625 3.472656 7.707031 3.472656 7.707031 M 7.871094 10.253906 C 10.402344 8.890625 9.230469 7.582031 8.414062 7.757812 C 8.214844 7.800781 8.125 7.839844 8.125 7.839844 C 8.125 7.839844 8.199219 7.71875 8.339844 7.667969 C 9.957031 7.078125 11.199219 9.402344 7.820312 10.324219 C 7.820312 10.324219 7.859375 10.285156 7.871094 10.253906 "/>
<path style=" stroke:none;fill-rule:nonzero;fill:rgb(90.588235%,43.529412%,0%);fill-opacity:1;" d="M 6.34375 0.015625 C 6.34375 0.015625 7.746094 1.46875 5.015625 3.703125 C 2.824219 5.492188 4.515625 6.515625 5.015625 7.683594 C 3.734375 6.488281 2.796875 5.433594 3.425781 4.457031 C 4.351562 3.019531 6.910156 2.320312 6.34375 0.015625 "/>
<path style=" stroke:none;fill-rule:nonzero;fill:rgb(32.54902%,50.980392%,63.137255%);fill-opacity:1;" d="M 3.722656 13.945312 C 6.148438 14.105469 9.878906 13.855469 9.96875 12.664062 C 9.96875 12.664062 9.800781 13.117188 7.960938 13.476562 C 5.886719 13.878906 3.332031 13.832031 1.8125 13.574219 C 1.8125 13.574219 2.125 13.839844 3.722656 13.945312 "/>
</g>
</svg>
